<?xml version="1.0" encoding="utf-8"?>
<svg viewBox="0 0 528 508" xmlns="http://www.w3.org/2000/svg">
  <path d="M 268.206 250.281 C 258.906 251.581 250.106 254.181 248.006 256.181 C 247.206 256.981 246.706 264.881 246.306 282.281 C 246.106 296.381 245.106 312.681 244.206 319.781 C 243.306 326.681 242.706 335.681 242.906 339.781 L 243.206 347.181 L 246.706 347.981 C 250.506 348.781 278.006 349.281 281.206 348.581 C 282.306 348.381 283.906 347.881 284.706 347.581 C 285.506 347.181 289.306 346.681 293.206 346.481 C 297.106 346.181 300.306 345.481 300.506 344.881 C 300.806 343.981 301.306 343.981 302.306 344.881 C 304.006 346.281 304.206 342.281 303.806 307.281 C 303.506 280.681 302.406 263.881 300.506 259.081 C 299.106 255.281 292.706 251.481 284.906 249.881 C 278.806 248.581 280.006 248.581 268.206 250.281 Z M 293.906 260.081 L 299.406 262.781 L 300.106 270.581 C 300.906 279.781 302.406 325.181 302.106 332.281 C 301.906 334.981 301.806 338.281 301.806 339.481 C 301.706 340.681 300.806 342.181 299.806 342.681 C 298.806 343.281 289.106 344.481 278.406 345.381 C 260.406 346.881 258.406 346.881 253.306 345.381 L 247.706 343.681 L 247.806 321.481 C 247.806 309.281 248.306 295.181 248.806 290.281 C 249.306 285.281 250.006 276.881 250.306 271.481 C 251.006 261.981 251.106 261.681 253.806 260.181 C 258.906 257.581 264.006 256.881 276.306 257.081 C 287.106 257.381 288.906 257.681 293.906 260.081 Z" fill="#000000" stroke="none"/>
  <g transform="matrix(0.1, 0, 0, -0.1, -554.560608, 1172.1073)" fill="#000000" stroke="none">
    <path d="M1990 476 c0 -2 7 -7 16 -10 8 -3 12 -2 9 4 -6 10 -25 14 -25 6z"/>
    <path d="M 10275.399 8028.325 C 10384.399 8201.325 10424.139 8388.832 10368.139 8277.832 C 10331.139 8202.832 10299.399 8199.325 10237.399 8152.325 C 10133.399 8073.325 10003.399 7989.325 9957.399 7973.325 C 9935.399 7965.325 9873.399 7955.325 9819.399 7950.325 C 9726.399 7941.325 9715.399 7937.325 9633.399 7890.325 C 9475.399 7799.325 9464.399 7797.325 9187.399 7804.325 C 8964.399 7811.325 8941.399 7810.325 8868.399 7791.325 C 8824.399 7779.325 8776.399 7770.325 8759.399 7770.325 C 8743.399 7770.325 8702.399 7763.325 8668.399 7754.325 C 8632.399 7744.325 8564.399 7737.325 8502.399 7736.325 C 8414.399 7735.325 8383.399 7739.325 8312.399 7762.325 C 8192.399 7800.325 8093.399 7806.325 7948.399 7785.325 C 7774.399 7760.325 7737.399 7766.325 7590.399 7841.325 L 7467.399 7904.325 L 7307.399 7908.325 C 7205.399 7910.325 7131.399 7917.325 7104.399 7926.325 C 7048.399 7944.325 6963.399 7944.325 6838.399 7924.325 C 6690.399 7900.325 6591.399 7915.325 6534.399 7971.325 C 6517.399 7988.325 6498.399 7999.325 6492.399 7995.325 C 6487.399 7992.325 6482.399 7993.325 6482.399 7998.325 C 6482.399 8012.325 6326.399 8040.325 6250.399 8040.325 L 6152.706 8034.742 C 6152.706 8034.742 6207.399 7807.325 6482.399 7523.325 C 6946.399 7045.325 7513.399 6833.325 8273.399 6853.325 C 8513.399 6859.325 8580.399 6868.325 8783.399 6920.325 C 9178.399 7021.325 9388.399 7125.325 9722.399 7389.325 C 9942.399 7562.325 10089.399 7732.325 10275.399 8028.325 Z M 10130.399 7898.325 C 10115.399 7875.325 10078.399 7853.325 10044.399 7845.325 C 10035.399 7843.325 9998.399 7832.325 9962.399 7821.325 C 9926.399 7809.325 9889.399 7800.325 9878.399 7800.325 C 9846.399 7800.325 9880.399 7829.325 9921.399 7836.325 C 9988.399 7847.325 10057.399 7870.325 10097.399 7894.325 C 10148.399 7924.325 10147.399 7924.325 10130.399 7898.325 Z M 6442.399 7891.325 C 6442.399 7886.325 6466.399 7870.325 6495.399 7856.325 L 6547.399 7830.325 L 6492.399 7836.325 C 6462.399 7839.325 6406.399 7845.325 6368.399 7848.325 C 6277.399 7857.325 6273.399 7874.325 6359.399 7887.325 C 6396.399 7892.325 6430.399 7898.325 6435.399 7898.325 C 6439.399 7899.325 6442.399 7896.325 6442.399 7891.325 Z M 9868.399 7865.325 C 9857.399 7857.325 9841.399 7850.325 9833.399 7850.325 C 9824.399 7851.325 9831.399 7857.325 9847.399 7865.325 C 9886.399 7883.325 9891.399 7883.325 9868.399 7865.325 Z M 7178.399 7831.325 C 7193.399 7821.325 7178.399 7820.325 7107.399 7825.325 C 6988.399 7834.325 6960.399 7851.325 7073.399 7846.325 C 7121.399 7844.325 7168.399 7837.325 7178.399 7831.325 Z M 6617.399 7800.325 C 6620.399 7795.325 6616.399 7790.325 6608.399 7790.325 C 6599.399 7790.325 6592.399 7795.325 6592.399 7800.325 C 6592.399 7806.325 6596.399 7810.325 6601.399 7810.325 C 6607.399 7810.325 6614.399 7806.325 6617.399 7800.325 Z M 6889.399 7777.325 C 6856.399 7766.325 6844.399 7774.325 6862.399 7795.325 C 6872.399 7807.325 6878.399 7807.325 6896.399 7798.325 C 6917.399 7787.325 6916.399 7786.325 6889.399 7777.325 Z M 7405.399 7799.325 C 7417.399 7792.325 7438.399 7776.325 7451.399 7764.325 C 7464.399 7751.325 7481.399 7740.325 7489.399 7740.325 C 7505.399 7740.325 7586.399 7690.325 7580.399 7684.325 C 7576.399 7681.325 7517.399 7697.325 7367.399 7745.325 C 7339.399 7753.325 7327.399 7763.325 7327.399 7776.325 C 7326.399 7810.325 7364.399 7820.325 7405.399 7799.325 Z M 6642.399 7770.325 C 6653.399 7763.325 6647.399 7760.325 6620.399 7760.325 C 6599.399 7760.325 6582.399 7765.325 6582.399 7770.325 C 6582.399 7783.325 6622.399 7783.325 6642.399 7770.325 Z M 7076.399 7739.325 C 7073.399 7734.325 7054.399 7730.325 7033.399 7730.325 C 6989.399 7730.325 6896.399 7704.325 6887.399 7689.325 C 6883.399 7683.325 6890.399 7682.325 6905.399 7685.325 C 6919.399 7689.325 6933.399 7687.325 6937.399 7680.325 C 6941.399 7674.325 6953.399 7672.325 6965.399 7676.325 C 6987.399 7682.325 6987.399 7682.325 6967.399 7667.325 C 6956.399 7659.325 6935.399 7650.325 6920.399 7647.325 C 6906.399 7643.325 6887.399 7638.325 6879.399 7635.325 C 6865.399 7629.325 6802.399 7674.325 6802.399 7689.325 C 6802.399 7706.325 6925.399 7746.325 6997.399 7752.325 C 7041.399 7756.325 7083.399 7749.325 7076.399 7739.325 Z M 8286.399 7726.325 C 8345.399 7701.325 8324.399 7697.325 8237.399 7717.325 C 8168.399 7732.325 8150.399 7732.325 8078.399 7720.325 C 7959.399 7701.325 7891.399 7697.325 7880.399 7708.325 C 7873.399 7715.325 7892.399 7720.325 7938.399 7725.325 C 7976.399 7728.325 8016.399 7735.325 8027.399 7741.325 C 8059.399 7755.325 8241.399 7745.325 8286.399 7726.325 Z M 7206.399 7719.325 C 7203.399 7714.325 7217.399 7710.325 7237.399 7710.325 C 7275.399 7710.325 7283.399 7707.325 7417.399 7644.325 C 7469.399 7620.325 7491.399 7605.325 7479.399 7603.325 C 7469.399 7600.325 7422.399 7617.325 7375.399 7640.325 C 7315.399 7670.325 7272.399 7684.325 7230.399 7688.325 C 7170.399 7693.325 7144.399 7713.325 7172.399 7730.325 C 7188.399 7740.325 7214.399 7731.325 7206.399 7719.325 Z M 9368.399 7699.325 C 9398.399 7699.325 9422.399 7694.325 9422.399 7689.325 C 9422.399 7684.325 9434.399 7680.325 9450.399 7680.325 C 9465.399 7680.325 9490.399 7673.325 9506.399 7665.325 C 9522.399 7656.325 9541.399 7651.325 9549.399 7654.325 C 9556.399 7657.325 9564.399 7655.325 9567.399 7650.325 C 9570.399 7645.325 9592.399 7638.325 9617.399 7634.325 C 9641.399 7631.325 9666.399 7622.325 9672.399 7615.325 C 9683.399 7602.325 9738.399 7584.325 9755.399 7588.325 C 9759.399 7589.325 9762.399 7586.325 9762.399 7580.325 C 9762.399 7569.325 9705.399 7568.325 9657.399 7579.325 C 9641.399 7582.325 9627.399 7590.325 9627.399 7595.325 C 9627.399 7613.325 9612.399 7629.325 9599.399 7624.325 C 9585.399 7619.325 9527.399 7630.325 9422.399 7658.325 C 9381.399 7669.325 9326.399 7682.325 9299.399 7685.325 C 9273.399 7689.325 9249.399 7697.325 9245.399 7703.325 C 9241.399 7709.325 9252.399 7710.325 9277.399 7706.325 C 9298.399 7702.325 9339.399 7699.325 9368.399 7699.325 Z M 6432.399 7690.325 C 6432.399 7685.325 6430.399 7680.325 6428.399 7680.325 C 6425.399 7680.325 6420.399 7685.325 6417.399 7690.325 C 6414.399 7696.325 6416.399 7700.325 6421.399 7700.325 C 6427.399 7700.325 6432.399 7696.325 6432.399 7690.325 Z M 7550.399 7625.325 C 7547.399 7622.325 7541.399 7627.325 7538.399 7637.325 C 7532.399 7651.325 7533.399 7652.325 7543.399 7643.325 C 7550.399 7636.325 7553.399 7628.325 7550.399 7625.325 Z M 9250.399 7631.325 C 9311.399 7620.325 9372.399 7599.325 9372.399 7590.325 C 9372.399 7586.325 9339.399 7592.325 9300.399 7602.325 C 9189.399 7631.325 9090.399 7635.325 9000.399 7615.325 C 8958.399 7606.325 8915.399 7592.325 8905.399 7584.325 C 8881.399 7566.325 8897.399 7567.325 8974.399 7586.325 C 9089.399 7616.325 9362.399 7586.325 9467.399 7532.325 C 9484.399 7524.325 9510.399 7515.325 9525.399 7514.325 C 9541.399 7512.325 9566.399 7502.325 9580.399 7492.325 C 9595.399 7482.325 9617.399 7475.325 9630.399 7476.325 C 9643.399 7477.325 9656.399 7471.325 9659.399 7463.325 C 9663.399 7453.325 9667.399 7452.325 9679.399 7461.325 C 9689.399 7470.325 9696.399 7470.325 9704.399 7462.325 C 9740.399 7426.325 9572.399 7437.325 9446.399 7479.325 C 9268.399 7538.325 9235.399 7544.325 9089.399 7544.325 C 8951.399 7544.325 8939.399 7553.325 9052.399 7569.325 C 9086.399 7574.325 9095.399 7578.325 9076.399 7579.325 C 9048.399 7580.325 8951.399 7561.325 8817.399 7527.325 C 8784.399 7519.325 8745.399 7509.325 8730.399 7506.325 C 8714.399 7502.325 8703.399 7494.325 8705.399 7488.325 C 8706.399 7481.325 8696.399 7474.325 8682.399 7472.325 C 8659.399 7470.325 8658.399 7470.325 8675.399 7484.325 C 8688.399 7494.325 8690.399 7499.325 8680.399 7502.325 C 8649.399 7513.325 8915.399 7623.325 9022.399 7643.325 C 9057.399 7650.325 9187.399 7643.325 9250.399 7631.325 Z M 6842.399 7630.325 C 6842.399 7625.325 6835.399 7620.325 6827.399 7620.325 C 6819.399 7620.325 6812.399 7625.325 6812.399 7630.325 C 6812.399 7636.325 6819.399 7640.325 6827.399 7640.325 C 6835.399 7640.325 6842.399 7636.325 6842.399 7630.325 Z M 9552.399 7580.325 C 9565.399 7571.325 9565.399 7570.325 9552.399 7571.325 C 9544.399 7571.325 9528.399 7575.325 9517.399 7580.325 L 9497.399 7589.325 L 9517.399 7589.325 C 9528.399 7589.325 9544.399 7585.325 9552.399 7580.325 Z M 7381.399 7570.325 C 7385.399 7570.325 7399.399 7561.325 7412.399 7550.325 C 7424.399 7539.325 7438.399 7533.325 7443.399 7536.325 C 7448.399 7538.325 7468.399 7532.325 7489.399 7521.325 C 7519.399 7505.325 7523.399 7501.325 7505.399 7500.325 C 7493.399 7500.325 7481.399 7504.325 7478.399 7509.325 C 7472.399 7518.325 7438.399 7516.325 7411.399 7506.325 C 7402.399 7502.325 7385.399 7509.325 7368.399 7525.325 C 7353.399 7539.325 7326.399 7554.325 7308.399 7558.325 L 7277.399 7564.325 L 7312.399 7571.325 C 7331.399 7574.325 7353.399 7576.325 7360.399 7574.325 C 7368.399 7572.325 7377.399 7570.325 7381.399 7570.325 Z M 6822.399 7540.325 C 6822.399 7535.325 6815.399 7530.325 6807.399 7530.325 C 6799.399 7530.325 6792.399 7535.325 6792.399 7540.325 C 6792.399 7546.325 6799.399 7550.325 6807.399 7550.325 C 6815.399 7550.325 6822.399 7546.325 6822.399 7540.325 Z M 8122.399 7540.325 C 8135.399 7532.325 8135.399 7530.325 8120.399 7530.325 C 8111.399 7530.325 8100.399 7535.325 8097.399 7540.325 C 8089.399 7553.325 8102.399 7553.325 8122.399 7540.325 Z M 9807.399 7541.325 C 9798.399 7525.325 9699.399 7501.325 9669.399 7507.325 C 9625.399 7516.325 9627.399 7530.325 9674.399 7531.325 C 9707.399 7531.325 9712.399 7533.325 9697.399 7540.325 C 9683.399 7546.325 9698.399 7549.325 9745.399 7549.325 C 9785.399 7550.325 9811.399 7546.325 9807.399 7541.325 Z M 6667.399 7510.325 C 6670.399 7505.325 6668.399 7500.325 6663.399 7500.325 C 6657.399 7500.325 6652.399 7505.325 6652.399 7510.325 C 6652.399 7516.325 6654.399 7520.325 6656.399 7520.325 C 6659.399 7520.325 6664.399 7516.325 6667.399 7510.325 Z M 7277.399 7510.325 C 7302.399 7499.325 7276.399 7499.325 7242.399 7510.325 C 7222.399 7516.325 7221.399 7518.325 7237.399 7518.325 C 7248.399 7518.325 7266.399 7515.325 7277.399 7510.325 Z M 6959.399 7488.325 C 6983.399 7479.325 6998.399 7479.325 7010.399 7486.325 C 7033.399 7499.325 7131.399 7497.325 7159.399 7482.325 C 7176.399 7473.325 7181.399 7473.325 7185.399 7483.325 C 7189.399 7492.325 7193.399 7491.325 7201.399 7480.325 C 7206.399 7472.325 7209.399 7463.325 7206.399 7459.325 C 7199.399 7446.325 7064.399 7428.325 7040.399 7436.325 C 7027.399 7440.325 7013.399 7443.325 7008.399 7442.325 C 7004.399 7440.325 6989.399 7446.325 6976.399 7455.325 C 6963.399 7463.325 6947.399 7470.325 6939.399 7470.325 C 6932.399 7470.325 6917.399 7477.325 6906.399 7485.325 C 6887.399 7499.325 6887.399 7499.325 6906.399 7500.325 C 6917.399 7500.325 6941.399 7495.325 6959.399 7488.325 Z M 7242.399 7470.325 C 7242.399 7465.325 7238.399 7460.325 7232.399 7460.325 C 7227.399 7460.325 7222.399 7465.325 7222.399 7470.325 C 7222.399 7476.325 7227.399 7480.325 7232.399 7480.325 C 7238.399 7480.325 7242.399 7476.325 7242.399 7470.325 Z M 8062.399 7470.325 C 8043.399 7457.325 8032.399 7457.325 8032.399 7470.325 C 8032.399 7476.325 8042.399 7480.325 8055.399 7480.325 C 8073.399 7480.325 8074.399 7478.325 8062.399 7470.325 Z M 7666.399 7457.325 C 7683.399 7444.325 7684.399 7443.325 7668.399 7437.325 C 7652.399 7430.325 7582.399 7453.325 7582.399 7464.325 C 7582.399 7476.325 7649.399 7470.325 7666.399 7457.325 Z M 7590.399 7423.325 C 7609.399 7415.325 7621.399 7406.325 7619.399 7403.325 C 7610.399 7395.325 7502.399 7421.325 7502.399 7431.325 C 7502.399 7444.325 7552.399 7440.325 7590.399 7423.325 Z M 7699.399 7424.325 C 7696.399 7421.325 7687.399 7420.325 7680.399 7423.325 C 7672.399 7426.325 7675.399 7429.325 7686.399 7429.325 C 7697.399 7430.325 7703.399 7427.325 7699.399 7424.325 Z M 7777.399 7420.325 C 7766.399 7415.325 7763.399 7411.325 7770.399 7411.325 C 7788.399 7410.325 7785.399 7390.325 7766.399 7390.325 C 7758.399 7390.325 7741.399 7395.325 7729.399 7402.325 C 7708.399 7413.325 7708.399 7413.325 7727.399 7421.325 C 7738.399 7425.325 7758.399 7429.325 7772.399 7429.325 C 7795.399 7429.325 7795.399 7428.325 7777.399 7420.325 Z M 8361.399 7421.325 C 8370.399 7415.325 8360.399 7409.325 8326.399 7402.325 C 8189.399 7371.325 8081.399 7362.325 8038.399 7379.325 C 8021.399 7385.325 8021.399 7387.325 8035.399 7393.325 C 8043.399 7396.325 8052.399 7395.325 8054.399 7389.325 C 8056.399 7384.325 8088.399 7388.325 8132.399 7399.325 C 8173.399 7410.325 8221.399 7420.325 8237.399 7422.325 C 8307.399 7430.325 8348.399 7430.325 8361.399 7421.325 Z M 8391.399 7396.325 C 8381.399 7386.325 8200.399 7340.325 8172.399 7340.325 C 8121.399 7340.325 8147.399 7357.325 8209.399 7364.325 C 8241.399 7368.325 8290.399 7377.325 8317.399 7385.325 C 8368.399 7399.325 8399.399 7403.325 8391.399 7396.325 Z M 8730.399 7388.325 C 8727.399 7380.325 8701.399 7374.325 8661.399 7372.325 C 8585.399 7368.325 8590.399 7387.325 8667.399 7393.325 C 8695.399 7395.325 8721.399 7397.325 8725.399 7398.325 C 8730.399 7399.325 8732.399 7394.325 8730.399 7388.325 Z M 7697.399 7374.325 C 7772.399 7368.325 7812.399 7358.325 7812.399 7345.325 C 7812.399 7331.325 7719.399 7338.325 7655.399 7356.325 C 7626.399 7364.325 7602.399 7375.325 7602.399 7381.325 C 7602.399 7387.325 7609.399 7389.325 7619.399 7386.325 C 7628.399 7382.325 7664.399 7377.325 7697.399 7374.325 Z M 7819.399 7384.325 C 7816.399 7381.325 7807.399 7380.325 7800.399 7383.325 C 7792.399 7386.325 7795.399 7389.325 7806.399 7389.325 C 7817.399 7390.325 7823.399 7387.325 7819.399 7384.325 Z M 7887.399 7380.325 C 7884.399 7375.325 7870.399 7370.325 7856.399 7370.325 C 7843.399 7370.325 7832.399 7375.325 7832.399 7380.325 C 7832.399 7386.325 7846.399 7390.325 7863.399 7390.325 C 7880.399 7390.325 7891.399 7386.325 7887.399 7380.325 Z M 7991.399 7374.325 C 7993.399 7372.325 7993.399 7368.325 7990.399 7365.325 C 7982.399 7356.325 7922.399 7372.325 7928.399 7381.325 C 7933.399 7389.325 7980.399 7383.325 7991.399 7374.325 Z M 6952.399 7346.325 C 6952.399 7343.325 6945.399 7340.325 6937.399 7340.325 C 6928.399 7340.325 6922.399 7349.325 6922.399 7361.325 C 6922.399 7379.325 6924.399 7380.325 6937.399 7366.325 C 6945.399 7358.325 6952.399 7349.325 6952.399 7346.325 Z M 8619.399 7353.325 C 8611.399 7346.325 8536.399 7330.325 8470.399 7323.325 C 8439.399 7320.325 8422.399 7322.325 8422.399 7329.325 C 8422.399 7335.325 8441.399 7341.325 8465.399 7341.325 C 8488.399 7342.325 8521.399 7346.325 8537.399 7350.325 C 8575.399 7360.325 8627.399 7362.325 8619.399 7353.325 Z M 6892.399 7319.325 C 6892.399 7315.325 6885.399 7313.325 6877.399 7316.325 C 6869.399 7320.325 6862.399 7326.325 6862.399 7331.325 C 6862.399 7335.325 6869.399 7337.325 6877.399 7334.325 C 6885.399 7330.325 6892.399 7324.325 6892.399 7319.325 Z M 8100.399 7335.325 C 8090.399 7325.325 7891.399 7320.325 7897.399 7330.325 C 7900.399 7336.325 7948.399 7340.325 8004.399 7340.325 C 8060.399 7340.325 8103.399 7338.325 8100.399 7335.325 Z M 8355.399 7329.325 C 8349.399 7323.325 8325.399 7316.325 8301.399 7313.325 C 8257.399 7307.325 8254.399 7322.325 8297.399 7333.325 C 8337.399 7342.325 8367.399 7341.325 8355.399 7329.325 Z M 8770.399 7303.325 C 8772.399 7295.325 8765.399 7290.325 8753.399 7290.325 C 8741.399 7290.325 8732.399 7296.325 8732.399 7306.325 C 8732.399 7324.325 8763.399 7321.325 8770.399 7303.325 Z M 6932.399 7303.325 C 6932.399 7298.325 6960.399 7294.325 6994.399 7292.325 C 7066.399 7288.325 7098.399 7276.325 7064.399 7266.325 C 7052.399 7262.325 7034.399 7261.325 7024.399 7264.325 C 7015.399 7267.325 6991.399 7265.325 6972.399 7260.325 C 6945.399 7252.325 6935.399 7254.325 6920.399 7267.325 C 6898.399 7287.325 6896.399 7310.325 6917.399 7310.325 C 6925.399 7310.325 6932.399 7307.325 6932.399 7303.325 Z M 8442.399 7296.325 C 8425.399 7281.325 8242.399 7267.325 8242.399 7281.325 C 8242.399 7291.325 8288.399 7299.325 8372.399 7303.325 C 8408.399 7305.325 8441.399 7307.325 8447.399 7308.325 C 8452.399 7309.325 8450.399 7304.325 8442.399 7296.325 Z M 8519.399 7294.325 C 8516.399 7291.325 8507.399 7290.325 8500.399 7293.325 C 8492.399 7296.325 8495.399 7299.325 8506.399 7299.325 C 8517.399 7300.325 8523.399 7297.325 8519.399 7294.325 Z M 7317.399 7230.325 C 7320.399 7225.325 7318.399 7220.325 7313.399 7220.325 C 7307.399 7220.325 7302.399 7225.325 7302.399 7230.325 C 7302.399 7236.325 7304.399 7240.325 7306.399 7240.325 C 7309.399 7240.325 7314.399 7236.325 7317.399 7230.325 Z M 8685.399 7233.325 C 8678.399 7231.325 8666.399 7231.325 8660.399 7233.325 C 8653.399 7236.325 8658.399 7238.325 8672.399 7238.325 C 8686.399 7238.325 8691.399 7236.325 8685.399 7233.325 Z M 7348.399 7170.325 C 7361.399 7170.325 7372.399 7167.325 7372.399 7163.325 C 7372.399 7158.325 7360.399 7155.325 7345.399 7155.325 C 7316.399 7155.325 7272.399 7188.325 7272.399 7210.325 C 7272.399 7217.325 7284.399 7211.325 7298.399 7196.325 C 7313.399 7182.325 7335.399 7170.325 7348.399 7170.325 Z M 9067.399 7204.325 C 9191.399 7185.325 9248.399 7160.325 9201.399 7145.325 C 9188.399 7140.325 9162.399 7145.325 9133.399 7158.325 C 9108.399 7169.325 9076.399 7181.325 9062.399 7184.325 C 9048.399 7187.325 9028.399 7196.325 9017.399 7205.325 L 8997.399 7222.325 L 9017.399 7215.325 C 9028.399 7212.325 9051.399 7206.325 9067.399 7204.325 Z M 8672.399 7205.325 C 8672.399 7193.325 8547.399 7139.325 8476.399 7120.325 C 8355.399 7088.325 8272.399 7083.325 8207.399 7106.325 C 8142.399 7128.325 8134.399 7145.325 8195.399 7135.325 C 8309.399 7116.325 8417.399 7132.325 8572.399 7189.325 C 8624.399 7208.325 8672.399 7216.325 8672.399 7205.325 Z M 8107.399 7190.325 C 8111.399 7184.325 8096.399 7180.325 8070.399 7180.325 C 8039.399 7180.325 8031.399 7183.325 8042.399 7190.325 C 8062.399 7203.325 8099.399 7203.325 8107.399 7190.325 Z M 7490.399 7144.325 C 7525.399 7125.325 7531.399 7123.325 7515.399 7138.325 L 7493.399 7158.325 L 7515.399 7164.325 C 7542.399 7171.325 7616.399 7142.325 7630.399 7119.325 C 7638.399 7106.325 7636.399 7100.325 7618.399 7090.325 C 7598.399 7080.325 7591.399 7081.325 7573.399 7096.325 C 7562.399 7106.325 7534.399 7116.325 7512.399 7117.325 C 7489.399 7119.325 7462.399 7125.325 7451.399 7131.325 C 7437.399 7138.325 7426.399 7138.325 7420.399 7132.325 C 7414.399 7126.325 7426.399 7120.325 7451.399 7116.325 C 7474.399 7113.325 7492.399 7105.325 7492.399 7100.325 C 7492.399 7084.325 7446.399 7089.325 7423.399 7108.325 C 7402.399 7124.325 7402.399 7126.325 7419.399 7147.325 C 7429.399 7160.325 7438.399 7170.325 7440.399 7170.325 C 7442.399 7170.325 7464.399 7158.325 7490.399 7144.325 Z M 8097.399 7160.325 C 8100.399 7155.325 8096.399 7150.325 8088.399 7150.325 C 8079.399 7150.325 8072.399 7155.325 8072.399 7160.325 C 8072.399 7166.325 8076.399 7170.325 8081.399 7170.325 C 8087.399 7170.325 8094.399 7166.325 8097.399 7160.325 Z M 8969.399 7140.325 C 8972.399 7129.325 8979.399 7120.325 8984.399 7120.325 C 8989.399 7120.325 8991.399 7116.325 8988.399 7111.325 C 8985.399 7107.325 8972.399 7104.325 8960.399 7105.325 C 8947.399 7106.325 8914.399 7108.325 8886.399 7109.325 C 8858.399 7109.325 8827.399 7117.325 8816.399 7125.325 C 8798.399 7140.325 8798.399 7140.325 8823.399 7135.325 C 8840.399 7131.325 8853.399 7134.325 8861.399 7144.325 C 8870.399 7154.325 8891.399 7160.325 8919.399 7160.325 C 8955.399 7160.325 8965.399 7156.325 8969.399 7140.325 Z M 7322.399 7130.325 C 7322.399 7125.325 7320.399 7120.325 7318.399 7120.325 C 7315.399 7120.325 7310.399 7125.325 7307.399 7130.325 C 7304.399 7136.325 7306.399 7140.325 7311.399 7140.325 C 7317.399 7140.325 7322.399 7136.325 7322.399 7130.325 Z M 7224.399 7090.325 C 7258.399 7074.325 7280.399 7060.325 7271.399 7060.325 C 7250.399 7060.325 7165.399 7098.325 7157.399 7110.325 C 7148.399 7125.325 7154.399 7123.325 7224.399 7090.325 Z M 7899.399 6984.325 C 7896.399 6981.325 7887.399 6980.325 7880.399 6983.325 C 7872.399 6986.325 7875.399 6989.325 7886.399 6989.325 C 7897.399 6990.325 7903.399 6987.325 7899.399 6984.325 Z M 7775.399 6973.325 C 7768.399 6971.325 7754.399 6971.325 7745.399 6973.325 C 7735.399 6976.325 7741.399 6978.325 7757.399 6978.325 C 7774.399 6978.325 7781.399 6976.325 7775.399 6973.325 Z" style="fill: rgb(0, 122, 129);"/>
  </g>
  <path d="M 276.034 12.811 C 275.534 13.011 273.434 13.411 271.434 13.711 C 266.634 14.511 259.134 19.611 256.534 23.911 C 255.334 25.811 253.734 31.011 253.034 35.911 C 252.234 40.711 251.334 45.511 250.934 46.711 C 250.134 49.211 245.134 56.111 242.134 58.611 C 228.134 70.711 227.734 71.211 227.034 76.311 C 225.534 87.011 229.634 91.311 243.034 93.311 C 252.634 94.711 260.734 96.911 265.834 99.511 C 269.834 101.511 272.434 101.111 270.534 98.811 C 268.734 96.611 253.634 91.611 246.534 90.911 C 238.934 90.011 232.134 87.311 230.634 84.511 C 229.234 81.911 229.234 76.111 230.634 73.111 C 231.134 71.811 234.334 68.811 237.634 66.311 C 249.334 57.611 253.634 50.411 255.534 36.811 C 256.934 26.111 259.534 22.211 267.034 19.411 C 276.134 16.011 298.934 17.111 325.134 22.211 C 343.834 25.811 373.034 36.111 389.534 45.011 C 418.334 60.511 450.534 90.711 472.434 123.011 C 478.734 132.411 489.634 154.611 493.534 166.311 C 502.234 192.311 506.034 216.911 505.934 247.811 C 505.934 271.711 504.734 283.611 499.634 308.611 C 496.034 326.011 493.317 336.468 487.234 347.311 C 464.588 387.671 458.667 398.281 421.704 430.883 C 379.723 467.911 311.319 484.381 281.233 483.785 C 233.073 482.831 160.533 471.345 106.289 419.404 C 91.516 405.257 70.534 372.311 70.534 372.311 L 66.534 364.311 C 57.834 346.911 48.634 322.011 47.034 311.311 C 46.734 309.411 45.634 303.111 44.534 297.311 C 43.434 291.511 42.234 283.011 41.734 278.411 C 40.834 269.111 41.134 268.511 46.834 269.811 C 52.734 271.211 61.834 270.811 65.534 269.011 C 70.334 266.511 80.634 265.311 86.934 266.311 C 91.934 267.111 99.534 269.711 99.534 270.611 C 99.534 270.911 98.834 273.011 98.034 275.411 C 97.134 277.811 96.734 281.111 97.034 282.811 C 97.334 284.411 98.034 290.511 98.634 296.311 C 100.234 312.811 101.134 314.411 111.834 321.411 C 116.834 324.611 121.534 327.311 122.334 327.311 C 123.134 327.311 127.934 329.311 133.034 331.711 C 138.034 334.111 144.634 336.911 147.634 337.911 C 153.534 339.811 158.034 341.311 173.034 346.711 C 185.534 351.111 199.734 354.711 214.434 357.111 C 220.634 358.211 226.034 359.511 226.434 360.011 C 226.734 360.511 229.934 360.911 233.534 360.911 C 237.134 360.911 247.734 361.111 257.034 361.411 C 266.434 361.711 279.934 361.611 287.034 361.211 C 316.534 359.311 321.334 359.311 321.834 361.111 C 322.234 362.511 322.434 362.411 323.034 360.611 C 323.634 358.911 324.734 358.411 329.534 357.811 C 344.334 356.111 366.334 350.011 377.134 344.711 C 384.134 341.211 384.834 341.011 386.034 342.611 C 387.634 344.811 388.534 344.811 388.534 342.411 C 388.534 341.111 391.134 339.411 398.534 335.911 C 404.034 333.411 408.834 331.311 409.134 331.311 C 409.434 331.311 414.334 327.911 420.034 323.811 C 428.934 317.311 430.634 315.611 432.134 311.611 C 433.734 307.611 433.734 306.311 432.634 300.411 C 431.934 296.811 431.334 292.211 431.434 290.311 C 431.634 277.111 431.434 264.511 430.934 263.011 C 430.634 262.111 431.134 258.811 432.034 255.711 C 433.134 251.811 433.734 245.611 433.834 235.911 C 433.934 222.011 433.934 221.811 431.134 217.611 C 429.534 215.111 425.634 211.711 422.134 209.411 C 413.934 204.211 390.934 192.511 381.034 188.411 C 376.634 186.611 369.334 183.311 364.734 181.211 C 360.134 179.011 356.234 177.311 356.034 177.311 C 355.834 177.311 340.534 169.911 322.034 160.811 C 303.634 151.711 288.134 144.311 287.734 144.311 C 287.334 144.311 285.234 143.811 283.134 143.211 L 279.234 142.111 L 279.934 129.011 C 280.334 121.711 281.034 114.011 281.634 111.811 C 283.534 104.611 283.334 104.011 279.434 103.011 C 276.134 102.211 273.134 102.911 266.334 105.711 C 265.234 106.211 264.534 105.911 264.134 104.511 C 262.734 100.211 253.434 99.011 243.034 102.011 C 234.934 104.211 219.134 104.311 215.034 102.111 C 208.734 98.711 206.534 93.211 206.534 80.811 C 206.534 73.511 206.334 72.811 203.034 68.311 C 196.634 59.511 187.334 57.211 166.534 59.211 C 139.334 61.811 115.734 74.811 89.134 101.711 C 78.634 112.311 72.534 121.111 61.934 140.511 C 58.234 147.311 54.634 153.711 53.934 154.811 C 52.134 157.611 44.634 175.911 42.834 181.811 C 36.534 203.111 32.334 242.111 33.734 268.011 C 34.534 282.411 35.134 286.711 39.134 304.811 C 49.034 349.011 73.034 395.611 100.534 424.011 C 146.934 471.811 203.486 492.456 279.634 491.011 C 353.714 489.605 391.134 463.811 424.534 437.411 C 446.534 420.111 461.234 403.111 479.834 373.511 C 490.734 356.211 499.834 333.911 505.034 311.911 C 509.834 291.411 510.834 280.311 510.934 246.311 C 511.034 210.211 510.334 204.911 501.134 170.811 C 495.134 148.511 481.734 123.311 464.734 102.111 C 451.334 85.611 428.534 64.111 411.534 52.111 C 387.934 35.511 350.534 21.511 316.034 16.411 C 301.034 14.111 278.334 12.111 276.034 12.811 Z M 155.134 81.111 C 157.234 82.911 162.734 87.611 167.334 91.611 C 171.834 95.511 177.634 100.311 180.234 102.111 C 192.434 110.811 195.834 116.511 184.134 108.911 C 177.934 104.811 174.234 102.011 162.334 92.511 C 160.134 90.711 158.134 89.411 157.934 89.511 C 157.434 90.111 161.134 100.311 165.834 111.511 C 171.234 124.311 172.334 128.311 170.234 128.311 C 169.434 128.311 168.134 126.611 167.234 124.511 C 166.334 122.511 163.834 116.311 161.534 110.811 C 159.234 105.311 156.734 99.411 156.034 97.811 C 151.434 87.511 150.134 84.511 148.934 81.011 C 146.534 74.211 146.934 74.211 155.134 81.111 Z M 129.934 100.011 C 134.634 105.411 142.834 114.311 148.134 119.811 C 153.434 125.311 158.134 130.711 158.734 131.711 C 159.934 133.811 159.934 133.811 150.534 130.411 C 138.334 126.011 122.734 121.511 117.634 120.911 L 112.334 120.211 L 125.934 133.511 C 133.434 140.911 139.534 147.411 139.534 148.111 C 139.534 150.811 136.334 150.611 133.934 147.811 C 132.634 146.311 124.534 137.811 115.934 129.111 C 107.434 120.311 100.634 112.911 100.834 112.711 C 101.034 112.411 102.534 112.711 104.134 113.411 C 108.034 114.911 138.434 123.711 145.334 125.311 C 147.034 125.711 148.534 125.711 148.534 125.311 C 148.534 124.911 144.534 120.511 139.634 115.711 C 128.634 104.711 118.334 92.411 119.134 91.211 C 120.234 89.411 121.434 90.411 129.934 100.011 Z M 278.034 108.311 C 278.034 109.411 276.634 109.911 272.834 110.111 C 268.734 110.311 267.534 110.111 267.534 108.911 C 267.534 107.011 269.234 106.411 274.034 106.611 C 276.834 106.711 278.034 107.211 278.034 108.311 Z M 276.734 134.811 C 276.534 148.011 276.034 157.711 275.334 159.011 C 273.934 161.711 270.834 162.611 267.534 161.011 L 265.034 159.811 L 265.334 137.311 C 265.434 124.911 265.734 114.311 265.934 113.811 C 266.134 113.211 268.734 112.811 271.634 112.811 L 277.034 112.811 L 276.734 134.811 Z M 97.434 138.311 C 111.134 147.711 125.534 162.511 125.534 167.111 C 125.534 170.611 122.034 173.311 117.734 173.311 C 111.534 173.311 105.834 171.111 93.534 163.811 C 74.434 152.611 71.334 150.111 74.834 148.711 C 76.234 148.211 91.434 156.411 100.334 162.511 C 109.434 168.811 116.334 170.711 120.034 167.911 C 121.934 166.611 121.934 166.311 120.334 163.111 C 118.434 158.911 111.734 153.411 94.034 141.111 C 87.734 136.811 86.534 135.611 86.534 133.511 C 86.534 131.311 88.434 132.211 97.434 138.311 Z M 281.934 149.911 C 282.234 150.711 282.934 151.211 283.534 150.811 C 284.534 150.211 297.234 154.811 299.034 156.411 C 300.234 157.611 298.634 157.511 289.834 155.911 C 283.134 154.711 282.634 154.711 282.234 156.511 C 281.334 159.911 280.034 158.311 279.734 153.311 C 279.434 148.511 280.634 146.611 281.934 149.911 Z M 262.334 155.011 C 262.034 157.611 261.634 157.811 254.034 159.011 C 249.634 159.811 242.734 160.911 238.834 161.711 C 234.834 162.411 231.534 162.811 231.534 162.611 C 231.534 161.611 246.934 155.211 252.234 153.911 C 261.334 151.711 262.734 151.811 262.334 155.011 Z M 301.534 160.311 C 306.734 161.411 312.434 162.911 314.034 163.711 C 315.734 164.411 319.534 165.911 322.534 166.811 C 325.534 167.811 333.034 171.111 339.234 174.211 C 364.334 186.811 384.434 197.311 391.534 201.511 C 395.634 203.911 400.134 206.311 401.534 206.911 C 402.934 207.511 405.734 208.811 407.834 209.711 C 409.934 210.611 411.334 211.811 411.034 212.311 C 410.734 212.911 411.134 213.011 412.034 212.711 C 413.034 212.311 413.534 212.511 413.334 213.311 C 413.134 214.011 413.634 214.811 414.434 215.111 C 415.334 215.411 415.534 215.111 415.034 214.311 C 414.534 213.411 414.634 213.211 415.434 213.711 C 416.034 214.111 416.334 214.811 416.034 215.311 C 415.734 215.711 417.634 217.511 420.334 219.211 C 424.334 221.811 425.434 223.211 427.934 229.311 C 431.334 237.711 431.134 242.311 426.634 253.411 C 424.034 259.911 423.934 260.811 425.034 264.611 C 427.434 272.811 427.834 281.911 426.034 287.811 C 424.834 291.511 424.634 293.711 425.234 294.511 C 426.934 296.711 427.634 301.311 426.934 305.911 C 426.034 311.911 420.134 317.711 409.434 323.211 C 404.834 325.611 400.234 328.511 399.234 329.711 C 398.234 330.811 397.634 331.211 398.034 330.511 C 398.434 329.811 396.434 330.611 393.534 332.411 C 390.634 334.211 388.034 335.211 387.534 334.711 C 387.034 334.211 386.334 328.611 385.934 322.211 C 385.334 311.411 385.434 310.611 387.134 309.911 C 388.234 309.511 392.734 307.811 397.134 306.211 C 401.634 304.611 408.134 301.911 411.634 300.211 C 418.434 296.911 417.234 296.911 409.034 300.111 C 395.834 305.411 386.034 309.011 385.634 308.711 C 385.434 308.511 385.134 302.611 385.034 295.511 C 384.934 288.511 384.534 280.911 384.134 278.711 L 383.434 274.611 L 387.734 273.911 C 392.734 273.111 407.834 268.311 407.234 267.711 C 407.034 267.411 404.834 267.911 402.434 268.711 C 399.934 269.511 394.934 270.911 391.134 271.811 C 383.734 273.511 382.534 273.111 382.534 268.911 C 382.534 265.211 376.134 245.711 373.334 240.611 C 368.034 231.211 355.734 220.411 319.734 193.511 C 316.334 190.911 310.634 186.511 307.234 183.711 C 303.834 180.911 298.934 177.111 296.434 175.211 C 293.834 173.311 289.734 170.011 287.134 167.911 C 282.034 163.611 279.134 163.811 284.134 168.111 C 289.034 172.411 311.134 189.511 322.434 197.811 C 326.534 200.711 337.534 209.211 340.534 211.611 C 341.334 212.311 346.334 216.311 351.634 220.411 C 361.234 228.111 368.434 235.811 372.334 242.511 C 374.634 246.611 381.134 266.211 381.734 270.711 C 382.034 273.311 381.634 273.811 379.034 274.411 C 373.534 275.811 349.234 277.711 335.234 277.911 C 327.734 278.011 321.434 278.511 321.234 279.011 C 320.534 281.411 349.234 280.111 371.834 276.711 C 377.334 275.811 381.934 275.411 382.334 275.711 C 383.134 276.511 384.134 295.411 383.734 303.411 C 383.534 309.111 383.134 310.211 381.234 311.111 C 379.034 312.211 379.034 312.211 381.534 312.011 L 384.034 311.811 L 384.334 324.511 L 384.634 337.111 L 376.834 340.811 C 365.234 346.311 354.334 349.711 338.534 352.911 C 322.034 356.211 322.634 356.411 322.434 345.811 C 322.334 341.911 322.134 337.711 322.034 336.311 C 320.734 325.211 318.234 270.511 318.434 260.111 C 318.634 254.211 318.434 253.411 317.034 253.911 C 315.534 254.511 315.434 259.211 315.734 305.711 L 316.034 356.811 L 311.034 357.511 C 303.934 358.411 278.134 358.311 271.034 357.311 C 267.734 356.811 257.834 355.711 249.034 354.711 C 240.234 353.811 232.834 352.911 232.634 352.711 C 232.134 352.311 232.234 351.811 233.434 326.811 C 235.434 287.711 236.534 270.811 237.634 262.611 L 238.734 254.411 L 247.234 250.311 C 258.434 244.811 266.634 243.411 282.134 244.311 C 294.734 245.111 302.034 247.111 309.034 251.811 C 313.334 254.811 315.134 254.911 316.534 252.411 C 318.134 249.311 317.834 248.711 312.634 245.011 C 304.834 239.411 300.234 237.411 289.934 235.311 C 277.934 232.811 272.434 232.811 261.234 235.311 C 248.534 238.111 230.934 247.911 234.434 250.211 C 235.634 250.911 235.634 252.411 234.734 258.511 C 234.134 262.511 233.334 270.011 232.934 275.211 L 232.234 284.611 L 220.134 284.011 C 213.134 283.711 202.934 282.311 196.034 280.811 C 189.434 279.411 179.734 277.611 174.534 276.811 C 159.134 274.511 154.534 273.311 154.534 271.611 C 154.534 270.811 155.834 266.211 157.434 261.411 C 158.934 256.711 160.534 251.611 160.934 250.011 C 161.234 248.511 162.034 247.311 162.534 247.311 C 163.134 247.311 163.534 246.611 163.534 245.811 C 163.534 240.811 178.034 225.411 187.334 220.411 C 188.634 219.711 192.034 217.111 194.834 214.511 C 197.734 211.911 201.834 208.311 204.034 206.511 C 208.334 202.911 206.934 203.211 201.834 206.911 C 200.134 208.211 198.334 209.311 197.934 209.311 C 196.034 209.311 201.034 205.511 212.834 198.111 C 238.034 182.411 254.034 171.411 259.734 166.111 C 262.034 163.911 263.034 163.511 264.534 164.311 C 267.734 166.011 271.034 165.411 277.634 161.911 C 285.334 157.911 288.834 157.711 301.534 160.311 Z M 255.334 166.911 C 249.434 172.111 238.234 179.911 213.534 195.811 C 202.634 202.811 196.234 208.111 197.034 209.411 C 197.634 210.211 187.834 218.311 186.234 218.311 C 185.634 218.311 187.034 216.911 189.334 215.211 C 191.634 213.511 193.534 211.911 193.534 211.711 C 193.534 210.811 189.334 213.511 185.734 216.711 C 183.634 218.411 180.334 221.111 178.334 222.611 C 173.834 225.911 164.534 237.211 161.734 242.811 C 160.634 245.011 158.034 252.211 156.034 258.811 C 154.034 265.411 151.934 271.211 151.534 271.711 C 150.634 272.611 141.134 269.611 127.534 264.011 C 119.334 260.611 111.434 258.011 116.034 260.211 C 123.234 263.711 136.234 269.011 143.034 271.311 C 148.134 273.111 150.934 274.611 150.834 275.411 C 150.734 276.211 149.034 283.211 146.934 291.111 C 143.934 302.711 142.934 305.411 141.634 305.011 C 140.734 304.711 131.934 301.611 122.034 298.011 C 104.434 291.611 104.034 291.511 103.234 288.211 C 102.234 284.411 102.934 276.511 104.434 273.611 C 107.434 268.011 109.534 263.011 109.534 261.711 C 109.534 260.611 110.134 260.311 111.134 260.711 C 111.934 261.011 112.334 260.911 112.034 260.311 C 111.734 259.711 112.034 259.311 112.734 259.311 C 113.434 259.211 112.534 258.611 110.834 257.811 C 106.534 256.011 106.134 252.411 109.134 242.411 C 112.534 231.311 124.034 221.711 153.034 205.911 C 156.934 203.711 166.234 198.311 173.834 193.711 C 181.334 189.111 187.734 185.311 187.934 185.311 C 188.234 185.311 191.634 183.411 195.734 181.011 C 199.734 178.611 208.034 174.111 214.034 170.911 C 224.634 165.311 225.534 165.011 238.534 163.311 C 245.934 162.311 254.234 161.411 256.834 161.411 L 261.634 161.311 L 255.334 166.911 Z M 86.534 183.011 C 107.934 187.711 110.634 188.611 109.234 190.011 C 108.534 190.711 100.834 189.511 83.634 186.211 C 77.934 185.111 73.034 184.511 72.634 184.811 C 72.334 185.211 73.634 186.811 75.534 188.511 C 83.134 195.011 99.534 211.711 99.534 212.911 C 99.534 217.011 96.234 214.311 74.334 192.511 C 67.834 186.111 62.534 180.411 62.534 179.811 C 62.534 178.411 70.534 179.511 86.534 183.011 Z M 366.934 184.811 C 368.034 185.611 368.434 186.311 367.934 186.311 C 367.334 186.311 366.034 185.611 364.934 184.811 C 363.934 184.011 363.534 183.411 364.034 183.411 C 364.634 183.411 365.934 184.011 366.934 184.811 Z M 381.134 192.411 C 381.934 193.811 380.134 193.511 377.934 191.811 C 376.134 190.511 376.134 190.411 378.334 191.011 C 379.534 191.311 380.834 191.911 381.134 192.411 Z M 399.534 202.911 C 399.534 203.111 398.634 202.911 397.534 202.311 C 396.434 201.711 395.534 201.011 395.534 200.711 C 395.534 200.511 396.434 200.711 397.534 201.311 C 398.634 201.911 399.534 202.611 399.534 202.911 Z M 54.134 208.011 C 53.434 213.311 55.534 220.211 58.534 222.511 C 62.434 225.411 65.234 225.411 72.234 222.811 C 75.834 221.411 80.034 220.311 81.534 220.311 C 85.334 220.311 89.234 223.711 90.534 228.111 C 91.834 232.911 91.834 240.911 90.434 243.411 C 88.634 246.811 87.734 244.511 88.234 238.311 C 89.434 225.011 83.234 221.611 68.234 227.411 C 61.334 230.111 58.234 229.911 55.234 226.411 C 51.534 222.011 50.134 215.111 51.634 209.111 C 53.134 203.411 54.934 202.611 54.134 208.011 Z M 415.634 208.411 C 417.934 209.511 419.534 210.611 419.234 210.911 C 419.034 211.111 416.834 210.211 414.434 208.811 C 409.134 205.811 410.034 205.511 415.634 208.411 Z M 412.534 209.911 C 412.534 210.111 411.634 209.911 410.534 209.311 C 409.434 208.711 408.534 208.011 408.534 207.711 C 408.534 207.511 409.434 207.711 410.534 208.311 C 411.634 208.911 412.534 209.611 412.534 209.911 Z M 423.534 218.911 C 423.534 219.111 422.234 218.711 420.534 217.811 C 418.934 216.911 417.534 216.011 417.534 215.711 C 417.534 215.511 418.934 215.911 420.534 216.811 C 422.234 217.711 423.534 218.611 423.534 218.911 Z M 120.134 225.211 C 119.134 226.811 109.534 233.311 109.534 232.411 C 109.534 231.711 119.334 224.311 120.334 224.311 C 120.534 224.311 120.434 224.711 120.134 225.211 Z M 429.234 272.011 C 428.934 273.011 428.734 272.211 428.734 270.311 C 428.734 268.411 428.934 267.611 429.234 268.511 C 429.434 269.511 429.434 271.111 429.234 272.011 Z M 171.334 277.811 C 179.434 279.211 189.634 281.211 194.034 282.311 C 203.134 284.511 212.534 285.911 223.934 286.911 L 231.834 287.511 L 231.134 301.111 C 230.734 308.711 230.234 317.411 229.834 320.511 L 229.234 326.311 L 223.934 326.311 C 210.834 326.311 180.834 320.411 165.534 314.811 C 157.134 311.811 145.534 306.511 145.534 305.811 C 145.534 305.111 152.434 277.411 153.134 275.411 C 153.334 274.711 154.234 274.411 155.034 274.711 C 155.934 275.011 163.234 276.411 171.334 277.811 Z M 119.734 298.711 C 144.334 308.011 142.734 307.111 142.034 310.711 C 141.334 314.211 137.434 325.311 136.934 325.311 C 136.734 325.311 135.134 324.411 133.334 323.311 C 131.534 322.211 129.134 321.311 128.134 321.311 C 127.134 321.311 124.334 319.711 122.034 317.811 C 119.734 315.911 115.834 313.611 113.434 312.711 C 106.234 309.911 104.434 307.511 103.834 299.911 C 103.434 295.511 103.634 293.311 104.334 293.311 C 104.934 293.311 111.834 295.711 119.734 298.711 Z M 430.934 301.911 C 431.234 302.711 431.134 303.111 430.534 302.811 C 429.934 302.511 429.534 301.811 429.534 301.211 C 429.534 299.811 430.234 300.111 430.934 301.911 Z M 161.034 314.611 C 174.934 320.211 191.834 324.511 211.034 327.311 C 219.334 328.611 226.734 329.911 227.534 330.411 C 228.834 331.011 229.034 332.611 228.334 340.411 C 227.434 351.711 227.234 352.311 224.334 351.811 C 223.034 351.511 219.434 350.811 216.334 350.311 C 213.134 349.711 208.834 348.611 206.734 347.911 C 204.734 347.111 200.034 346.211 196.534 345.911 C 192.934 345.511 185.534 343.911 180.034 342.311 C 167.634 338.711 142.634 329.811 141.434 328.611 C 140.634 327.811 143.834 311.311 145.134 309.111 C 145.434 308.711 146.634 308.811 147.834 309.311 C 149.034 309.811 155.034 312.211 161.034 314.611 Z M 51.834 338.311 C 52.134 339.411 52.034 340.111 51.534 339.811 C 51.134 339.511 50.534 338.411 50.234 337.311 C 49.934 336.211 50.034 335.511 50.534 335.811 C 50.934 336.111 51.534 337.211 51.834 338.311 Z M 179.134 345.011 C 178.434 345.711 172.634 344.311 172.034 343.311 C 171.734 342.911 173.334 343.011 175.534 343.511 C 177.834 344.111 179.434 344.811 179.134 345.011 Z M 222.034 355.211 C 224.634 355.811 225.134 356.111 223.534 356.111 C 222.134 356.211 219.234 355.811 217.034 355.411 C 214.434 354.811 213.934 354.511 215.534 354.511 C 216.934 354.411 219.834 354.811 222.034 355.211 Z"/>
  <g transform="matrix(1, 0, 0, 1, -39.358479, 660.249878)">
    <path d="M 534.84 -411.219 C 527.04 -399.119 520.04 -394.819 508.44 -394.819 C 503.94 -394.819 501.54 -395.419 498.04 -397.419 C 493.64 -400.019 483.94 -409.119 483.94 -410.719 C 483.94 -411.119 487.84 -412.019 492.74 -412.719 C 497.54 -413.419 505.24 -414.619 509.94 -415.419 C 514.64 -416.219 520.04 -416.819 521.94 -416.919 C 523.84 -416.919 528.34 -417.719 531.94 -418.719 C 540.24 -420.919 540.54 -420.019 534.84 -411.219 Z M 526.44 -413.719 C 524.84 -413.219 519.44 -412.119 514.44 -411.319 C 509.54 -410.419 502.74 -409.219 499.44 -408.519 L 493.44 -407.219 L 496.44 -405.619 C 498.14 -404.719 501.24 -403.019 503.44 -401.819 C 509.34 -398.719 515.24 -399.419 521.44 -404.119 C 525.34 -407.119 530.94 -413.219 530.94 -414.519 C 530.94 -414.919 529.84 -414.719 526.44 -413.719 Z M 509.24 -447.119 C 523.04 -446.819 534.84 -446.219 535.34 -445.719 C 536.64 -444.619 535.24 -441.819 533.44 -441.819 C 532.54 -441.819 527.44 -439.919 522.14 -437.719 C 516.84 -435.419 508.24 -432.019 503.14 -430.219 C 498.04 -428.319 492.44 -426.119 490.74 -425.219 C 487.24 -423.419 485.14 -424.519 486.64 -427.319 C 487.74 -429.119 496.54 -433.119 504.44 -435.319 C 507.24 -436.019 512.14 -437.919 515.44 -439.419 C 523.34 -442.919 521.74 -443.419 502.84 -443.119 C 487.84 -442.819 483.94 -443.519 483.94 -446.219 C 483.94 -447.419 488.34 -447.519 509.24 -447.119 Z M 525.44 -488.419 C 527.34 -487.919 527.04 -481.419 525.04 -478.219 C 523.04 -475.019 518.44 -473.219 516.34 -474.919 C 515.74 -475.419 514.44 -473.719 512.64 -469.919 C 508.64 -461.119 501.34 -456.819 490.64 -456.819 C 486.24 -456.819 485.34 -457.219 480.44 -461.919 C 474.24 -467.819 474.34 -469.619 481.34 -471.719 C 483.54 -472.319 494.24 -476.419 504.94 -480.819 C 515.64 -485.119 524.94 -488.619 525.44 -488.419 Z M 517.54 -482.319 C 514.64 -481.119 514.64 -481.019 516.74 -479.919 C 520.54 -477.919 522.94 -479.019 522.94 -482.919 C 522.94 -484.119 521.04 -483.919 517.54 -482.319 Z M 508.54 -478.719 C 506.94 -478.619 482.74 -468.019 481.74 -467.019 C 481.24 -466.519 482.14 -465.019 483.94 -463.419 C 488.44 -459.719 496.44 -459.719 500.84 -463.419 C 505.04 -466.919 508.04 -471.319 508.94 -475.419 C 509.54 -477.719 509.34 -478.819 508.54 -478.719 Z M 508.14 -523.719 C 508.94 -523.819 516.94 -507.219 516.94 -505.419 C 516.94 -503.719 514.24 -501.419 513.64 -502.519 C 513.44 -502.919 512.94 -504.619 512.54 -506.119 C 512.14 -507.719 510.74 -510.719 509.34 -512.919 C 506.54 -517.319 506.44 -517.319 498.14 -511.419 C 493.24 -507.919 493.14 -506.719 497.04 -498.319 C 498.54 -495.019 498.94 -493.419 498.14 -492.619 C 496.34 -490.819 494.24 -492.419 491.24 -497.719 C 489.74 -500.519 488.04 -502.819 487.54 -502.819 C 486.24 -502.819 472.94 -492.719 472.94 -491.719 C 472.94 -491.319 473.84 -488.619 474.94 -485.819 C 477.44 -479.419 477.44 -477.219 474.84 -476.519 C 472.74 -475.919 471.74 -477.519 470.34 -483.619 C 469.94 -485.119 468.84 -488.019 467.84 -490.019 C 465.14 -495.419 465.44 -496.519 470.24 -498.719 C 472.64 -499.819 475.24 -501.419 475.94 -502.319 C 476.64 -503.119 477.64 -503.819 478.14 -503.819 C 478.94 -503.819 481.94 -505.819 500.74 -519.019 C 504.44 -521.619 507.74 -523.719 508.14 -523.719 Z M 484.64 -553.819 C 488.44 -553.819 486.54 -547.919 476.84 -529.619 C 472.44 -521.319 469.04 -514.419 469.24 -514.219 C 469.44 -513.919 471.84 -515.719 474.54 -518.119 C 479.94 -522.919 498.44 -536.819 499.34 -536.819 C 499.64 -536.819 499.94 -536.219 499.94 -535.519 C 499.94 -534.819 494.74 -530.319 488.44 -525.419 C 482.14 -520.619 473.94 -513.819 470.24 -510.419 C 464.44 -505.119 458.94 -501.019 458.94 -502.019 C 458.94 -503.619 463.84 -514.519 467.34 -520.619 C 474.34 -533.119 478.94 -541.719 478.94 -542.319 C 478.94 -542.919 466.44 -533.019 462.04 -528.919 C 451.04 -518.819 446.74 -515.619 445.74 -516.619 C 444.74 -517.619 454.24 -527.519 466.24 -537.719 C 468.54 -539.719 473.34 -544.119 476.94 -547.519 C 480.54 -551.019 483.94 -553.819 484.64 -553.819 Z M 468.34 -569.819 C 469.04 -569.819 470.44 -568.919 471.34 -567.919 C 473.04 -566.119 472.64 -565.519 461.74 -554.119 C 448.94 -540.619 438.94 -529.119 438.94 -527.719 C 438.94 -526.219 434.94 -526.719 434.34 -528.319 C 433.94 -529.119 434.64 -530.819 435.74 -532.019 C 444.44 -541.819 447.24 -545.219 451.94 -551.319 C 454.94 -555.219 459.54 -560.919 462.24 -564.119 C 464.94 -567.219 467.74 -569.819 468.34 -569.819 Z M 449.24 -589.719 C 451.44 -589.919 450.64 -586.119 446.84 -578.619 C 444.54 -574.019 439.34 -562.719 435.34 -553.319 C 430.84 -542.819 427.44 -536.219 426.54 -536.019 C 424.24 -535.519 424.44 -536.319 429.04 -546.919 C 436.84 -564.919 440.44 -575.219 438.94 -574.619 C 438.44 -574.419 432.14 -568.819 424.94 -562.119 C 417.74 -555.319 411.34 -549.819 410.84 -549.819 C 410.34 -549.819 409.64 -550.419 409.34 -551.119 C 408.84 -552.519 431.54 -575.419 442.44 -584.619 C 445.74 -587.419 448.84 -589.719 449.24 -589.719 Z M 415.44 -609.219 C 416.24 -606.519 416.94 -603.319 416.94 -602.219 C 416.94 -599.319 413.24 -594.819 410.84 -594.819 C 409.54 -594.819 408.94 -594.119 408.84 -592.619 C 408.74 -591.319 408.44 -581.819 408.04 -571.319 C 407.54 -555.419 407.24 -552.319 405.94 -552.319 C 405.14 -552.319 404.44 -553.019 404.54 -553.819 C 404.64 -554.719 404.94 -564.819 405.24 -576.319 C 405.94 -599.819 406.24 -599.619 399.44 -581.819 C 397.44 -576.619 394.84 -569.919 393.74 -567.019 C 392.24 -563.219 391.24 -561.819 390.04 -562.119 C 387.94 -562.519 388.14 -562.919 394.44 -577.819 C 397.34 -584.719 400.24 -592.119 400.94 -594.319 C 401.64 -596.519 403.44 -601.319 405.04 -604.919 C 406.54 -608.519 408.34 -612.619 408.84 -614.119 C 410.64 -618.919 413.04 -617.119 415.44 -609.219 Z M 408.84 -604.519 C 407.54 -601.919 406.74 -599.619 407.04 -599.419 C 407.34 -599.119 408.84 -599.219 410.54 -599.719 C 413.14 -600.419 413.44 -600.919 413.14 -603.919 C 412.74 -609.319 411.24 -609.519 408.84 -604.519 Z M 379.74 -625.819 C 382.64 -624.019 382.94 -623.419 382.94 -618.919 C 382.94 -613.719 381.64 -611.519 377.94 -610.319 C 376.84 -610.019 375.94 -609.319 375.94 -608.919 C 375.94 -607.419 382.04 -584.219 383.04 -581.919 C 386.04 -574.819 385.84 -567.819 382.54 -567.819 C 381.94 -567.819 379.44 -575.719 376.94 -585.919 C 374.54 -595.819 372.24 -604.119 371.84 -604.419 C 371.44 -604.619 369.04 -598.719 366.64 -591.219 C 364.14 -583.719 361.64 -577.119 361.04 -576.519 C 359.14 -574.619 358.64 -578.519 360.34 -583.019 C 361.14 -585.419 362.54 -590.019 363.44 -593.319 C 366.34 -604.119 373.24 -625.319 374.24 -626.619 C 375.54 -628.219 375.84 -628.119 379.74 -625.819 Z M 376.84 -622.119 C 375.14 -621.719 372.64 -614.419 373.74 -613.319 C 375.44 -611.619 380.94 -615.219 380.94 -618.119 C 380.94 -620.219 378.54 -622.519 376.84 -622.119 Z M 348.14 -630.519 C 352.04 -627.319 352.94 -623.919 352.94 -612.719 C 352.94 -604.519 352.44 -601.219 350.34 -595.019 C 346.44 -583.519 344.44 -582.019 338.24 -585.819 C 332.44 -589.319 330.44 -601.219 333.34 -614.919 C 334.84 -621.919 337.74 -628.419 340.44 -631.219 C 342.64 -633.419 344.94 -633.219 348.14 -630.519 Z M 344.74 -625.619 C 341.14 -626.019 339.34 -623.119 337.34 -613.719 C 335.64 -605.619 335.94 -598.619 338.34 -594.019 C 341.64 -587.719 344.44 -589.119 347.04 -598.419 C 349.74 -608.419 350.34 -616.519 348.74 -621.319 C 347.74 -624.519 346.94 -625.419 344.74 -625.619 Z M 307.54 -635.819 C 308.84 -635.819 309.04 -633.719 308.44 -617.619 C 308.04 -607.519 307.64 -597.919 307.54 -596.119 C 307.34 -594.419 307.54 -592.519 307.94 -591.919 C 308.24 -591.319 311.74 -590.419 315.64 -589.919 C 323.54 -588.919 324.94 -588.419 324.94 -586.219 C 324.94 -585.119 323.94 -584.919 320.74 -585.219 C 318.34 -585.519 313.34 -585.719 309.54 -585.719 L 302.74 -585.819 L 303.44 -599.619 C 303.74 -607.119 304.54 -617.419 305.04 -622.319 C 305.54 -627.319 305.94 -632.319 305.94 -633.619 C 305.94 -634.919 306.54 -635.819 307.54 -635.819 Z"/>
  </g>
</svg>